<mxfile host="app.diagrams.net" modified="2021-01-06T12:43:42.707Z" agent="5.0 (Windows)" etag="ZYe94vWfmCk0xFzmzuuO" version="14.1.8" type="github">
  <diagram id="GKaKh_S4XbhN8XKJnZ4r" name="Page-1">
    <mxGraphModel dx="868" dy="451" grid="1" gridSize="10" guides="1" tooltips="1" connect="1" arrows="1" fold="1" page="1" pageScale="1" pageWidth="827" pageHeight="1169" math="0" shadow="0">
      <root>
        <mxCell id="0" />
        <mxCell id="1" parent="0" />
        <mxCell id="z8EuOmVdRvKHD9WgISt6-1" value="ManageEmployee&#xa;View" style="shape=umlLifeline;perimeter=lifelinePerimeter;container=1;collapsible=0;recursiveResize=0;rounded=0;shadow=0;strokeWidth=1;" vertex="1" parent="1">
          <mxGeometry x="200" y="80" width="100" height="360" as="geometry" />
        </mxCell>
        <mxCell id="z8EuOmVdRvKHD9WgISt6-2" value="" style="points=[];perimeter=orthogonalPerimeter;rounded=0;shadow=0;strokeWidth=1;" vertex="1" parent="z8EuOmVdRvKHD9WgISt6-1">
          <mxGeometry x="45" y="70" width="10" height="120" as="geometry" />
        </mxCell>
        <mxCell id="z8EuOmVdRvKHD9WgISt6-11" value="AddEmployeePopup()" style="verticalAlign=bottom;endArrow=block;shadow=0;strokeWidth=1;" edge="1" parent="z8EuOmVdRvKHD9WgISt6-1" source="z8EuOmVdRvKHD9WgISt6-2" target="z8EuOmVdRvKHD9WgISt6-2">
          <mxGeometry x="-0.12" y="14" relative="1" as="geometry">
            <mxPoint x="-70" y="155" as="sourcePoint" />
            <mxPoint x="180" y="175" as="targetPoint" />
            <Array as="points">
              <mxPoint x="110" y="140" />
              <mxPoint x="110" y="155" />
            </Array>
            <mxPoint x="-4" y="-10" as="offset" />
          </mxGeometry>
        </mxCell>
        <mxCell id="z8EuOmVdRvKHD9WgISt6-3" value="AddEmployee&#xa;Controller" style="shape=umlLifeline;perimeter=lifelinePerimeter;container=1;collapsible=0;recursiveResize=0;rounded=0;shadow=0;strokeWidth=1;" vertex="1" parent="1">
          <mxGeometry x="410" y="80" width="100" height="360" as="geometry" />
        </mxCell>
        <mxCell id="z8EuOmVdRvKHD9WgISt6-4" value="" style="points=[];perimeter=orthogonalPerimeter;rounded=0;shadow=0;strokeWidth=1;" vertex="1" parent="z8EuOmVdRvKHD9WgISt6-3">
          <mxGeometry x="45" y="210" width="10" height="130" as="geometry" />
        </mxCell>
        <mxCell id="z8EuOmVdRvKHD9WgISt6-5" value="click on add employee button" style="verticalAlign=bottom;endArrow=block;shadow=0;strokeWidth=1;" edge="1" parent="1" source="z8EuOmVdRvKHD9WgISt6-10" target="z8EuOmVdRvKHD9WgISt6-2">
          <mxGeometry relative="1" as="geometry">
            <mxPoint x="175" y="560" as="sourcePoint" />
            <mxPoint x="300" y="490" as="targetPoint" />
            <Array as="points">
              <mxPoint x="120" y="190" />
            </Array>
          </mxGeometry>
        </mxCell>
        <mxCell id="z8EuOmVdRvKHD9WgISt6-7" value="Manager" style="shape=umlActor;verticalLabelPosition=bottom;verticalAlign=top;html=1;outlineConnect=0;" vertex="1" parent="1">
          <mxGeometry x="50" y="70" width="30" height="60" as="geometry" />
        </mxCell>
        <mxCell id="z8EuOmVdRvKHD9WgISt6-8" value="Database" style="shape=umlLifeline;perimeter=lifelinePerimeter;container=1;collapsible=0;recursiveResize=0;rounded=0;shadow=0;strokeWidth=1;" vertex="1" parent="1">
          <mxGeometry x="630" y="80" width="100" height="360" as="geometry" />
        </mxCell>
        <mxCell id="z8EuOmVdRvKHD9WgISt6-9" value="" style="points=[];perimeter=orthogonalPerimeter;rounded=0;shadow=0;strokeWidth=1;" vertex="1" parent="z8EuOmVdRvKHD9WgISt6-8">
          <mxGeometry x="45" y="210" width="10" height="130" as="geometry" />
        </mxCell>
        <mxCell id="z8EuOmVdRvKHD9WgISt6-10" value="" style="points=[];perimeter=orthogonalPerimeter;rounded=0;shadow=0;strokeWidth=1;" vertex="1" parent="1">
          <mxGeometry x="60" y="150" width="10" height="290" as="geometry" />
        </mxCell>
        <mxCell id="z8EuOmVdRvKHD9WgISt6-12" value="" style="points=[];perimeter=orthogonalPerimeter;rounded=0;shadow=0;strokeWidth=1;" vertex="1" parent="1">
          <mxGeometry x="245" y="290" width="10" height="120" as="geometry" />
        </mxCell>
        <mxCell id="z8EuOmVdRvKHD9WgISt6-13" value="addEmployeeInfoAndConfirm" style="verticalAlign=bottom;endArrow=block;shadow=0;strokeWidth=1;" edge="1" parent="1">
          <mxGeometry relative="1" as="geometry">
            <mxPoint x="70" y="320" as="sourcePoint" />
            <mxPoint x="245" y="320" as="targetPoint" />
            <Array as="points">
              <mxPoint x="120" y="320" />
            </Array>
          </mxGeometry>
        </mxCell>
        <mxCell id="z8EuOmVdRvKHD9WgISt6-14" value="addNewEmployee()" style="verticalAlign=bottom;endArrow=block;shadow=0;strokeWidth=1;" edge="1" parent="1" source="z8EuOmVdRvKHD9WgISt6-12" target="z8EuOmVdRvKHD9WgISt6-4">
          <mxGeometry relative="1" as="geometry">
            <mxPoint x="280" y="349.5" as="sourcePoint" />
            <mxPoint x="455" y="349.5" as="targetPoint" />
            <Array as="points" />
          </mxGeometry>
        </mxCell>
        <mxCell id="z8EuOmVdRvKHD9WgISt6-15" value="updateManageEmployee()" style="verticalAlign=bottom;endArrow=block;shadow=0;strokeWidth=1;" edge="1" parent="1" source="z8EuOmVdRvKHD9WgISt6-4" target="z8EuOmVdRvKHD9WgISt6-9">
          <mxGeometry relative="1" as="geometry">
            <mxPoint x="480" y="390" as="sourcePoint" />
            <mxPoint x="680" y="390" as="targetPoint" />
            <Array as="points">
              <mxPoint x="555" y="390" />
            </Array>
          </mxGeometry>
        </mxCell>
      </root>
    </mxGraphModel>
  </diagram>
</mxfile>
